<?xml version="1.0" encoding="UTF-8" standalone="no"?>
<!-- Generator: Adobe Illustrator 16.0.0, SVG Export Plug-In . SVG Version: 6.00 Build 0)  -->

<svg
   xmlns:dc="http://purl.org/dc/elements/1.1/"
   xmlns:cc="http://creativecommons.org/ns#"
   xmlns:rdf="http://www.w3.org/1999/02/22-rdf-syntax-ns#"
   xmlns:svg="http://www.w3.org/2000/svg"
   xmlns="http://www.w3.org/2000/svg"
   xmlns:sodipodi="http://sodipodi.sourceforge.net/DTD/sodipodi-0.dtd"
   xmlns:inkscape="http://www.inkscape.org/namespaces/inkscape"
   version="1.1"
   id="Capa_1"
   x="0px"
   y="0px"
   width="479.917px"
   height="479.917px"
   viewBox="0 0 479.917 479.917"
   style="enable-background:new 0 0 479.917 479.917;"
   xml:space="preserve"
   sodipodi:docname="001-rugby-flag.svg"
   inkscape:version="0.92.3 (2405546, 2018-03-11)"><metadata
   id="metadata5359"><rdf:RDF><cc:Work
       rdf:about=""><dc:format>image/svg+xml</dc:format><dc:type
         rdf:resource="http://purl.org/dc/dcmitype/StillImage" /></cc:Work></rdf:RDF></metadata><defs
   id="defs5357">
	















</defs><sodipodi:namedview
   pagecolor="#ffffff"
   bordercolor="#666666"
   borderopacity="1"
   objecttolerance="10"
   gridtolerance="10"
   guidetolerance="10"
   inkscape:pageopacity="0"
   inkscape:pageshadow="2"
   inkscape:window-width="2560"
   inkscape:window-height="1361"
   id="namedview5355"
   showgrid="false"
   inkscape:zoom="1.7074504"
   inkscape:cx="217.24711"
   inkscape:cy="183.91172"
   inkscape:window-x="-9"
   inkscape:window-y="-9"
   inkscape:window-maximized="1"
   inkscape:current-layer="Capa_1" />
<g
   id="g5320"
   transform="rotate(11.526591,239.95855,239.95937)">
		<path
   inkscape:connector-curvature="0"
   id="path5316"
   d="m 21.077,327.04 c 8.824,-39.137 49.073,-66.711 79.948,-67.256 30.877,-0.554 65.614,16.534 100.893,31.967 35.277,15.44 50.722,20.959 84.36,24.257 33.635,3.311 50.723,-0.553 50.723,-0.553 0,0 -176.09126,209.25496 -191.52426,229.65196 10.87506,13.14581 45.59272,-3.45385 45.59272,-3.45385 0,0 174.60454,-206.34111 201.61854,-251.55711 50.722,-50.169 72.786,-129.013 72.786,-129.013 l -4.961,-5.508 c 0,0 4.408,-4.412 7.169,-8.277 24.258,-55.681 4.957,-127.366 4.957,-127.366 l -10.471,44.661 c 0,0 -22.057,22.053 -72.783,22.053 -62.856,0 -136.737,-54.032 -194.626,-49.073 -111.93,8.276 -149.974,84.367 -149.974,84.367 0,0 49.62,-20.951 61.202,-19.843 C 87.789,125.806 62.98,121.94 62.98,121.94 l 6.62,10.473 -35.29,10.472 c 0,0 16.541,12.128 24.257,35.29 7.716,23.157 -17.088,23.708 -36.945,44.661 C -15.309,254.814 2.328,313.8 21.077,327.04 Z"
   sodipodi:nodetypes="cccccccccccccsccccccccc" />
		<path
   inkscape:connector-curvature="0"
   id="path5318"
   d="m 291.93469,409.37508 c 51.3307,-32.35052 -1.96827,-3.8237 6.99273,3.5393 -4.155,0.949 -9.79209,0.004 -6.75509,1.91889 3.034,1.92 -2.79864,1.74681 -0.23764,-5.45819 14.391,6.885 -18.062,22.691 0,0 18.062,-22.694 4.961,13.425 0,0 -0.161,3.519 12.151,0 0,0 -12.146,0 1.52835,2.72064 0.0933,-5.26636 -1.442,-7.99 10.22266,-5.78623 10.22266,-5.78623 0,0 -2.38866,-0.44877 -10.22266,5.78623 -7.835,6.231 -4.18004,-13.72372 -4.18004,-13.72372 l 14.4027,7.93749 c -0.003,10e-4 -6.64101,8.33059 -10.31601,11.05259 z m 0,0 v 0 c 0,0 13.898,-14.067 0,0 -13.906,14.07 -1.29661,10.01035 -1.29661,10.01035 z"
   sodipodi:nodetypes="ccccccsccccccccccc" />
	</g>















</svg>