<?xml version="1.0" encoding="iso-8859-1"?>
<!-- Generator: Adobe Illustrator 19.0.0, SVG Export Plug-In . SVG Version: 6.00 Build 0)  -->
<svg version="1.1" id="Capa_1" xmlns="http://www.w3.org/2000/svg" xmlns:xlink="http://www.w3.org/1999/xlink" x="0px" y="0px"
	 viewBox="0 0 512 512" style="enable-background:new 0 0 512 512;" xml:space="preserve">
<path style="fill:#607D8B;" d="M347.328,436.672l-64-64c-6.24-6.256-16.371-6.269-22.627-0.029
	c-3.016,3.009-4.708,7.096-4.701,11.357c-0.02-8.837-7.199-15.984-16.035-15.965c-4.238,0.009-8.3,1.7-11.293,4.701l-64,64
	c-6.221,6.276-6.177,16.406,0.099,22.627c2.988,2.962,7.022,4.628,11.229,4.637h160c8.837,0.016,16.013-7.135,16.029-15.971
	C352.036,443.768,350.344,439.681,347.328,436.672z"/>
<rect x="32" y="48" style="fill:#FAFAFA;" width="448" height="256"/>
<path style="fill:#B0BEC5;" d="M0,336v32c0,17.673,14.327,32,32,32h448c17.673,0,32-14.327,32-32v-32H0z"/>
<path d="M480,400H32c-17.673,0-32-14.327-32-32V80c0-17.673,14.327-32,32-32h448c17.673,0,32,14.327,32,32v288
	C512,385.673,497.673,400,480,400z M32,80v288h448V80H32z"/>
<path d="M336,464H176c-8.837,0.016-16.013-7.135-16.029-15.971c-0.008-4.26,1.684-8.348,4.701-11.357l64-64
	c6.24-6.256,16.371-6.269,22.627-0.029c3.016,3.009,4.708,7.096,4.701,11.357c0.002-8.837,7.167-15.998,16.003-15.997
	c4.249,0.001,8.324,1.692,11.325,4.701l64,64c6.239,6.258,6.223,16.389-0.035,22.627C344.294,462.32,340.234,463.999,336,464z
	 M214.624,432h82.752l-36.704-36.672c-2.999-3.006-4.68-7.082-4.672-11.328c-0.001,4.235-1.681,8.297-4.672,11.296L214.624,432z"/>
<path d="M496,336H16c-8.837,0-16-7.163-16-16s7.163-16,16-16h480c8.837,0,16,7.163,16,16S504.837,336,496,336z"/>
<g>
	<path style="fill:#2196F3;" d="M304,272c-8.837,0-16-7.163-16-16V128c0-8.837,7.163-16,16-16s16,7.163,16,16v128
		C320,264.837,312.837,272,304,272z"/>
	<path style="fill:#2196F3;" d="M304,208c-8.837,0.016-16.013-7.135-16.029-15.971c-0.008-4.26,1.684-8.348,4.701-11.357l64-64
		c6.256-6.256,16.4-6.256,22.656,0s6.256,16.4,0,22.656l-64,64C312.322,206.327,308.246,208.008,304,208z"/>
	<path style="fill:#2196F3;" d="M368,272c-4.246,0.008-8.322-1.673-11.328-4.672l-64-64c-6.256-6.256-6.256-16.4,0-22.656
		s16.4-6.256,22.656,0l0,0l64,64c6.256,6.24,6.269,16.371,0.029,22.627C376.348,270.316,372.26,272.008,368,272z"/>
	<path style="fill:#2196F3;" d="M144,208c-8.837,0-16-7.163-16-16v-64c0-8.837,7.163-16,16-16s16,7.163,16,16v64
		C160,200.837,152.837,208,144,208z"/>
	<path style="fill:#2196F3;" d="M208,272c-8.837,0-16-7.163-16-16V128c0-8.837,7.163-16,16-16s16,7.163,16,16v128
		C224,264.837,216.837,272,208,272z"/>
	<path style="fill:#2196F3;" d="M208,208h-64c-8.837,0-16-7.163-16-16s7.163-16,16-16h64c8.837,0,16,7.163,16,16
		S216.837,208,208,208z"/>
</g>
<g>
</g>
<g>
</g>
<g>
</g>
<g>
</g>
<g>
</g>
<g>
</g>
<g>
</g>
<g>
</g>
<g>
</g>
<g>
</g>
<g>
</g>
<g>
</g>
<g>
</g>
<g>
</g>
<g>
</g>
</svg>
