<?xml version="1.0" encoding="UTF-8" standalone="no"?>
<!-- Generator: Adobe Illustrator 19.0.0, SVG Export Plug-In . SVG Version: 6.00 Build 0)  -->

<svg
   xmlns:dc="http://purl.org/dc/elements/1.1/"
   xmlns:cc="http://creativecommons.org/ns#"
   xmlns:rdf="http://www.w3.org/1999/02/22-rdf-syntax-ns#"
   xmlns:svg="http://www.w3.org/2000/svg"
   xmlns="http://www.w3.org/2000/svg"
   xmlns:sodipodi="http://sodipodi.sourceforge.net/DTD/sodipodi-0.dtd"
   xmlns:inkscape="http://www.inkscape.org/namespaces/inkscape"
   version="1.1"
   id="Layer_1"
   x="0px"
   y="0px"
   viewBox="0 0 512.001 512.001"
   style="enable-background:new 0 0 512.001 512.001;"
   xml:space="preserve"
   sodipodi:docname="ctf.svg"
   inkscape:version="0.92.3 (2405546, 2018-03-11)"><metadata
   id="metadata53"><rdf:RDF><cc:Work
       rdf:about=""><dc:format>image/svg+xml</dc:format><dc:type
         rdf:resource="http://purl.org/dc/dcmitype/StillImage" /><dc:title></dc:title></cc:Work></rdf:RDF></metadata><defs
   id="defs51" /><sodipodi:namedview
   pagecolor="#ffffff"
   bordercolor="#666666"
   borderopacity="1"
   objecttolerance="10"
   gridtolerance="10"
   guidetolerance="10"
   inkscape:pageopacity="0"
   inkscape:pageshadow="2"
   inkscape:window-width="2560"
   inkscape:window-height="1361"
   id="namedview49"
   showgrid="false"
   inkscape:zoom="0.49394029"
   inkscape:cx="151.54338"
   inkscape:cy="423.81028"
   inkscape:window-x="-9"
   inkscape:window-y="-9"
   inkscape:window-maximized="1"
   inkscape:current-layer="Layer_1" />





















<g
   id="g5269"
   transform="translate(35.363084,-42.979748)"><g
     id="g6">
	<path
   id="path2"
   d="m 388.414,123.587 3.836,-42.186 c 0.374,-4.114 2.178,-7.965 5.099,-10.886 l 52.858,-52.86 c 3.447,-3.447 9.037,-3.447 12.484,0 l 31.654,31.654 c 3.447,3.447 3.447,9.037 0,12.484 l -52.86,52.86 c -2.921,2.921 -6.773,4.725 -10.886,5.099 z"
   style="fill:#ff6464"
   inkscape:connector-curvature="0" />
	<circle
   id="circle4"
   r="211.862"
   cy="300.13901"
   cx="211.862"
   style="fill:#ff6464" />
</g><circle
     id="circle8"
     r="158.897"
     cy="300.13901"
     cx="211.862"
     style="fill:#ffffff" /><circle
     id="circle10"
     r="105.931"
     cy="300.13901"
     cx="211.862"
     style="fill:#ff6464" /><circle
     id="circle12"
     r="52.966"
     cy="300.13901"
     cx="211.862"
     style="fill:#ffffff" /><g
     id="g18">
</g><g
     id="g20">
</g><g
     id="g22">
</g><g
     id="g24">
</g><g
     id="g26">
</g><g
     id="g28">
</g><g
     id="g30">
</g><g
     id="g32">
</g><g
     id="g34">
</g><g
     id="g36">
</g><g
     id="g38">
</g><g
     id="g40">
</g><g
     id="g42">
</g><g
     id="g44">
</g><g
     id="g46">
</g><rect
     y="4.94876"
     x="380.28915"
     height="125.13091"
     width="123.49877"
     id="rect4702"
     style="fill:#ffffff;fill-opacity:1;stroke:none;stroke-width:14.02358532;stroke-miterlimit:4;stroke-dasharray:none;stroke-opacity:1;paint-order:stroke fill markers" /></g><path
   inkscape:connector-curvature="0"
   id="path5316"
   d="m 175.60858,144.38039 c 10.51835,-20.67135 39.22936,-31.39295 58.62327,-28.20871 19.3963,3.17949 38.9567,16.56204 59.06757,29.08951 20.10873,12.53112 29.07114,17.33047 49.70386,22.9543 20.62918,5.63069 31.81758,5.42077 31.81758,5.42077 0,0 -136.92324,95.96926 -149.1861,105.51929 5.12864,8.50585 28.97687,3.23551 28.97687,3.23551 0,0 135.6208,-94.52389 158.3,-116.50705 38.15001,-22.04853 62.02338,-63.20823 62.02338,-63.20823 l -2.40199,-3.609557 c 0,0 3.32207,-1.94495 5.54349,-3.77302 22.29001,-28.088112 19.35968,-69.954689 19.35968,-69.954689 l -12.25427,23.543688 c 0,0 -16.62012,9.718961 -48.369,3.991686 C 397.472,45.777067 358.12736,7.5214059 321.26227,3.7308659 250.15008,-4.3248188 216.62639,33.506476 216.62639,33.506476 c 0,0 33.73085,-5.996818 40.83848,-4.075712 -14.41619,11.071482 -29.45042,6.130041 -29.45042,6.130041 l 2.8066,6.545667 -23.4243,1.813213 c 0,0 8.80481,8.582079 10.67774,22.276571 1.87358,13.691724 -13.72132,11.196252 -28.82407,20.55461 -27.19644,13.534424 -23.68667,48.182514 -13.64184,57.629524 z"
   sodipodi:nodetypes="cccccccccccccsccccccccc"
   style="stroke-width:0.60077143" /></svg>