<?xml version="1.0" encoding="UTF-8" standalone="no"?>
<!-- Generator: Adobe Illustrator 19.0.0, SVG Export Plug-In . SVG Version: 6.00 Build 0)  -->

<svg
   xmlns:dc="http://purl.org/dc/elements/1.1/"
   xmlns:cc="http://creativecommons.org/ns#"
   xmlns:rdf="http://www.w3.org/1999/02/22-rdf-syntax-ns#"
   xmlns:svg="http://www.w3.org/2000/svg"
   xmlns="http://www.w3.org/2000/svg"
   xmlns:sodipodi="http://sodipodi.sourceforge.net/DTD/sodipodi-0.dtd"
   xmlns:inkscape="http://www.inkscape.org/namespaces/inkscape"
   version="1.1"
   id="Capa_1"
   x="0px"
   y="0px"
   viewBox="0 0 512 512"
   style="enable-background:new 0 0 512 512;"
   xml:space="preserve"
   sodipodi:docname="001-video-player.svg"
   inkscape:version="0.92.3 (2405546, 2018-03-11)"><metadata
   id="metadata3845"><rdf:RDF><cc:Work
       rdf:about=""><dc:format>image/svg+xml</dc:format><dc:type
         rdf:resource="http://purl.org/dc/dcmitype/StillImage" /><dc:title /></cc:Work></rdf:RDF></metadata><defs
   id="defs3843" /><sodipodi:namedview
   pagecolor="#ffffff"
   bordercolor="#666666"
   borderopacity="1"
   objecttolerance="10"
   gridtolerance="10"
   guidetolerance="10"
   inkscape:pageopacity="0"
   inkscape:pageshadow="2"
   inkscape:window-width="2560"
   inkscape:window-height="1361"
   id="namedview3841"
   showgrid="false"
   inkscape:zoom="2.28125"
   inkscape:cx="171.83562"
   inkscape:cy="294.11374"
   inkscape:window-x="-9"
   inkscape:window-y="-9"
   inkscape:window-maximized="1"
   inkscape:current-layer="Capa_1" />
<g
   id="g3784">
	<g
   id="g3782">
		<path
   d="M503.467,34.133H8.533C3.823,34.133,0,37.948,0,42.667v358.4v68.267c0,4.719,3.823,8.533,8.533,8.533h494.933    c4.71,0,8.533-3.814,8.533-8.533v-68.267v-358.4C512,37.948,508.177,34.133,503.467,34.133z M494.933,460.8H17.067v-51.2h477.867    V460.8z M494.933,392.533H17.067V51.2h477.867V392.533z"
   id="path3780" />
	</g>
</g>
<g
   id="g3790">
	<g
   id="g3788">
		<rect
   x="460.8"
   y="426.667"
   width="17.067"
   height="17.067"
   id="rect3786" />
	</g>
</g>
<g
   id="g3796">
	<g
   id="g3794">
		<rect
   x="426.667"
   y="426.667"
   width="17.067"
   height="17.067"
   id="rect3792" />
	</g>
</g>
<g
   id="g3802">
	<g
   id="g3800">
		<rect
   x="34.133"
   y="426.667"
   width="375.467"
   height="17.067"
   id="rect3798" />
	</g>
</g>
<g
   id="g3808">
	<g
   id="g3806">
		<path
   d="M303.061,214.554l-85.333-51.2c-2.645-1.579-5.931-1.621-8.593-0.111c-2.679,1.519-4.335,4.352-4.335,7.424v102.4    c0,3.072,1.656,5.905,4.326,7.424c1.306,0.742,2.756,1.109,4.207,1.109c1.519,0,3.038-0.41,4.395-1.22l85.333-51.2    c2.569-1.536,4.139-4.309,4.139-7.313S305.63,216.09,303.061,214.554z M221.867,257.988v-72.252l60.211,36.13L221.867,257.988z"
   id="path3804" />
	</g>
</g>
<g
   id="g3810">
</g>
<g
   id="g3812">
</g>
<g
   id="g3814">
</g>
<g
   id="g3816">
</g>
<g
   id="g3818">
</g>
<g
   id="g3820">
</g>
<g
   id="g3822">
</g>
<g
   id="g3824">
</g>
<g
   id="g3826">
</g>
<g
   id="g3828">
</g>
<g
   id="g3830">
</g>
<g
   id="g3832">
</g>
<g
   id="g3834">
</g>
<g
   id="g3836">
</g>
<g
   id="g3838">
</g>
<circle
   style="fill:none;fill-opacity:1;stroke:#000000;stroke-width:13.39999962;stroke-miterlimit:4;stroke-dasharray:none;stroke-opacity:1;paint-order:stroke fill markers"
   id="path6385"
   cx="242.84932"
   cy="220.05479"
   r="100" /><text
   xml:space="preserve"
   style="font-style:normal;font-weight:normal;font-size:40px;line-height:1.25;font-family:sans-serif;letter-spacing:0px;word-spacing:0px;fill:#000000;fill-opacity:1;stroke:none"
   x="119.23288"
   y="365.58902"
   id="text39"><tspan
     sodipodi:role="line"
     id="tspan37"
     x="119.23288"
     y="365.58902"
     style="font-style:normal;font-variant:normal;font-weight:bold;font-stretch:normal;font-family:sans-serif;-inkscape-font-specification:'sans-serif Bold'">LIVE DEMO</tspan></text>
</svg>